<?xml version="1.0" encoding="UTF-8" standalone="no"?>
<!DOCTYPE svg PUBLIC "-//W3C//DTD SVG 1.1//EN" "http://www.w3.org/Graphics/SVG/1.1/DTD/svg11.dtd">
<svg width="100%" height="100%" viewBox="0 0 80 80" version="1.1" xmlns="http://www.w3.org/2000/svg" xmlns:xlink="http://www.w3.org/1999/xlink" xml:space="preserve" xmlns:serif="http://www.serif.com/" style="fill-rule:evenodd;clip-rule:evenodd;stroke-linejoin:round;stroke-miterlimit:2;">
    <g transform="matrix(1.06242,0,0,0.920188,-1.99279,-3.99353)">
        <path d="M34.855,7.191C34.855,7.191 36.766,4.34 39.575,4.34C42.383,4.34 44.294,7.191 44.294,7.191L76.386,73.724C76.386,73.724 77.172,76.383 75.558,78.625C74.097,80.655 70.723,80.377 70.723,80.377L8.426,80.377C8.426,80.377 5.658,80.729 3.548,78.572C1.423,76.399 2.763,73.724 2.763,73.724C29.546,16.414 34.855,7.191 34.855,7.191ZM6.143,75.647L6.077,75.788C6.059,75.826 6.041,75.863 6.022,75.9C6.022,75.9 6.115,75.79 6.143,75.647ZM6.22,75.481C7.043,76.173 8.015,76.057 8.015,76.057C8.152,76.039 8.289,76.031 8.426,76.031L70.723,76.031C70.812,76.031 70.901,76.034 70.99,76.042C70.99,76.042 71.452,76.068 72.013,75.967C72.212,75.932 72.587,75.79 72.726,75.736C72.8,75.577 72.815,75.394 72.812,75.25C69.649,68.691 41.156,9.619 41.154,9.617C40.893,9.277 40.33,8.687 39.575,8.687C38.753,8.687 38.159,9.386 37.933,9.701L37.928,9.709C37.268,10.896 31.115,22.218 6.22,75.481Z" style="fill:white;"/>
    </g>
</svg>
